<?xml version="1.0" encoding="UTF-8"?><svg id="Layer_1" xmlns="http://www.w3.org/2000/svg" viewBox="0 0 836.41 258.57"><defs><style>.cls-1{fill:#ed2027;}.cls-2{fill:#221f1f;}</style></defs><g><polygon class="cls-1" points="148.22 0 131.89 28.5 235.31 208.92 267.98 208.91 148.22 0"/><path class="cls-1" d="M210.79,208.91l-62.54-109.11h0s0,0,0,0l-62.62,109.15,125.16-.04v-.02s0,0,0,0Zm-62.68-52.34l13.78,24.04h-27.33s13.55-24.04,13.55-24.04Z"/><g><polygon class="cls-1" points="56.98 258.57 296.52 258.57 280.33 230.22 73.27 230.22 56.98 258.57"/><polygon class="cls-1" points="135.97 78.37 119.64 49.87 0 258.57 32.68 258.57 135.97 78.37"/></g></g><g><g><path class="cls-2" d="M328.18,94.49v43.28h-15.64V72.24l-5.17-8.26v-1.1h18.5l32.81,47.68V62.88h15.64v74.88h-15.64l-30.5-43.28Z"/><path class="cls-2" d="M402.95,137.76V62.88h42.62v15.09h-26.98v14.54h24.78v15.08h-24.78v15.09h26.98v15.09h-42.62Z"/><path class="cls-2" d="M464.74,62.88h17.4l12.66,55.28,15.31-46.14-2.53-9.14h15.75l15.31,55.28,12.55-55.28h17.4l-20.04,74.88h-17.51l-13.21-44.6-15.53,44.6h-17.51l-20.04-74.88Z"/><path class="cls-2" d="M660.87,121.8h-26.75l-5.62,15.97h-17.51l27.75-74.88h17.51l27.75,74.88h-17.51l-5.62-15.97Zm-21.58-15.09h16.52l-8.26-23.34-8.26,23.34Z"/><path class="cls-2" d="M756.35,82.15c-5.06-2.76-12.33-4.85-20.26-4.85-12.99,0-22.68,9.69-22.68,23.01s9.03,23.01,21.69,23.01c12,0,19.16-8.26,19.16-16.41,0-.44-.11-1.21-.11-1.65h-19.38v-14.2h35.46c.55,2.86,.99,7.16,.99,10.9,0,19.71-12.55,37-36.56,37-21.69,0-37.33-16.85-37.33-38.65s16.3-38.65,38.76-38.65c7.71,0,15.31,1.32,20.26,3.52v16.96Z"/><path class="cls-2" d="M793.8,137.76V62.88h42.61v15.09h-26.98v14.54h24.78v15.08h-24.78v15.09h26.98v15.09h-42.61Z"/></g><g><path class="cls-2" d="M407.33,207.58c-2.54,1.22-5.47,1.94-8.57,1.94-11,0-19.36-8.41-19.36-19.43s8.35-19.43,19.36-19.43c3.1,0,6.03,.72,8.57,1.94v9.03c-2.1-1.83-5.09-3.1-8.57-3.1-6.41,0-11.28,5.21-11.28,11.57s4.81,11.57,11.28,11.57c3.49,0,6.58-1.27,8.57-3.05v8.97Z"/><path class="cls-2" d="M451.21,200.88h-13.44l-2.82,8.03h-8.79l13.94-37.65h8.79l13.94,37.65h-8.79l-2.82-8.03Zm-10.84-7.58h8.3l-4.15-11.74-4.15,11.74Z"/><path class="cls-2" d="M483.42,171.26h13c7.36,0,12.44,3.99,12.44,10.96,0,5.37-3.1,8.47-6.8,9.52,4.7,2.44,7.52,9.08,8.41,17.16h-8.13c-1.33-8.19-4.54-14.01-9.13-14.01h-1.93v14.01h-7.85v-37.65Zm13,7.58h-5.14v8.47h5.14c2.49,0,4.37-1.49,4.37-4.21s-1.88-4.26-4.37-4.26Z"/><path class="cls-2" d="M553.52,200.88h-13.44l-2.82,8.03h-8.8l13.94-37.65h8.79l13.93,37.65h-8.79l-2.82-8.03Zm-10.84-7.58h8.29l-4.15-11.74-4.15,11.74Z"/><path class="cls-2" d="M579.14,171.26h8.8l9.57,28.51,9.51-28.51h8.79l-13.93,37.65h-8.79l-13.94-37.65Z"/><path class="cls-2" d="M654.88,200.88h-13.44l-2.82,8.03h-8.79l13.94-37.65h8.79l13.94,37.65h-8.79l-2.82-8.03Zm-10.84-7.58h8.3l-4.15-11.74-4.15,11.74Z"/><path class="cls-2" d="M695.17,187.15v21.76h-7.85v-32.94l-2.6-4.15v-.56h9.29l16.48,23.97v-23.97h7.85v37.65h-7.85l-15.32-21.76Z"/><path class="cls-2" d="M762.55,180.72c-1.94-1.39-5.25-2.71-8.13-2.71-3.15,0-4.65,1.44-4.65,3.38,0,1.22,1,2.38,2.82,3.43l4.98,2.99c4.87,2.93,6.8,6.2,6.8,10.41,0,5.92-3.93,11.29-12.66,11.29-3.71,0-7.13-.94-9.51-1.94v-8.69c2.05,1.61,5.69,3.27,9.18,3.27,2.99,0,4.65-1.44,4.65-3.49,0-1.27-.89-2.44-2.99-3.65l-5.14-3.05c-4.98-2.88-6.53-6.09-6.53-10.35,0-5.26,3.37-10.97,13.11-10.97,2.82,0,5.75,.67,8.07,1.72v8.36Z"/></g></g></svg>